<svg xmlns="http://www.w3.org/2000/svg" viewBox="0 0 367 227">
  <path d="M251.38,0c7.3,1.9,13.98,4.67,19.47,10.55l13.94,14.9c3.18,3.4,7.72,4.75,12.11,4.17l19.4-2.53c22.26-2.9,43.1,21.49,49.55,40.31,1.72,5.02.01,11.93.1,16.9.16,9-4.39,15.75-5.95,24.06l-6.03,32.06-.99,7.43c-16.41,13.98-16.45,2.29-27.84,12.99-4.8,4.5-8.73,9.96-7.15,17.72-10.89-1.37-16.03-8.64-20.97-16.7-3.49-5.7-12.7-11.05-19.35-10.73-7.21.35-13.37,3.57-20.19,2.49-5.21-.82-9.78-.64-13.36,2.84-3.21,3.12-4.88,8.7-3.34,13.33,1.63,4.87,2.11,9.05,2.74,14.23.63,5.18,2.62,10.54,4.14,15.63,4.58,15.34,15.98,17.15,15.67,23.92-.16,3.4-8.43,1.56-7.97,3.44h-8c-1.03-2.44-8.88,1.28-11.04-8.18-4.63-20.32-14.08-12.43-19.22-19.6-5.38-7.51-5.3-.61-14.38-12.5-2.64-3.46-5.76-6.82-10.45-7.7-2.45,3.65-6.74,8.97-7.01,13.65-.55,9.44,6.18,18.52,10.22,26.2-7.16,3.24-13.25,2.22-20.25.21l-1.49-6.43c-.78-3.36-2.97-6.02-4.81-9.02-2.6-4.25-3.62-10.36-7.33-13.67s-4.09-6.56-5.39-10.85c-1.37-4.52-2.98-9.7-2.85-15.29-6.61-2.35-14.1-4.94-20.59-7.95-6.08-2.83-11.7-4.13-18.77-3.72-6.84-5.04-16.73-9.04-25.54-5.6-5.12,2-8.01,9.79-9.43,14.72-4.76,16.5-9.34,20.46-4.93,30.87,6.19,14.62,9.77,13.67,13.29,19.43,3.09,5.05-19.25,5.27-20.61.13-4.71-18.21-.39-5.06-13.67-22.52l-4.79-6.3c1.09-6.98,1.17-13.42.3-20.66l-10.17,8.01c-3.68,2.9-6.2,7.06-9.05,10.86-2.15,2.87-3.52,5.06-4.53,8.85-.75,2.83-4.07,6.91-3.6,10.02,1.66,10.99,12.24,14.67,9.86,18.95-5.26,2-13.05,2.63-18.61-.11-4.22-3.73-1.42-10.26-6.8-17.18,3.76-11.26,4.42-22.76,1.67-34.81,1.9-9.91,11.17-11.35,15-24.58,1.9-6.57,3.51-13.23,4.82-19.81-10.39-12.81-8.6-19.23-8.84-35.18-15.23,8.95-5.11,26.73-5.73,34.88-.1,1.33-3.86,16.94-7.5,15.82-1.54-5.05-2.76-9.15-4.81-12.92v-6c3.01-7.17,4.86-14.77,7.56-22.7,4.6-13.48,12.84-25.71,23.19-35.5,6.46-6.11,27.06-11.75,37.27-16.88,13.82-6.94,27.52-11.75,42.75-15.26,19.58-4.51,38.26-9.63,57.03-16.64,12.56-4.69,24.87-6.34,38.24-7.28C216.08,4.07,225.33,1.36,234.38,0h17Z" fill="currentColor"/>
</svg>
